<svg preserveAspectRatio="none" width="100%" height="100%" overflow="visible" style="display: block;" viewBox="0 0 112 112" fill="none" xmlns="http://www.w3.org/2000/svg">
<g id="Container" opacity="0.1">
<path id="Icon" d="M70 75.6L75.6 70C76 69.6 76.2 69.1333 76.2 68.6C76.2 68.0667 76 67.6 75.6 67.2L62 53.5C62.2667 52.7667 62.4667 52.0333 62.6 51.3C62.7333 50.5667 62.8 49.7333 62.8 48.8C62.8 45 61.45 41.75 58.75 39.05C56.05 36.35 52.8 35 49 35C47.8667 35 46.7333 35.15 45.6 35.45C44.4667 35.75 43.3667 36.1667 42.3 36.7L51.7 46.1L46.1 51.7L36.7 42.3C36.1667 43.3667 35.75 44.4667 35.45 45.6C35.15 46.7333 35 47.8667 35 49C35 52.8 36.35 56.05 39.05 58.75C41.75 61.45 45 62.8 48.8 62.8C49.6667 62.8 50.4833 62.7333 51.25 62.6C52.0167 62.4667 52.7667 62.2667 53.5 62L67.2 75.6C67.6 76 68.0667 76.2 68.6 76.2C69.1333 76.2 69.6 76 70 75.6V75.6M56 96C50.4667 96 45.2667 94.95 40.4 92.85C35.5333 90.75 31.3 87.9 27.7 84.3C24.1 80.7 21.25 76.4667 19.15 71.6C17.05 66.7333 16 61.5333 16 56C16 50.4667 17.05 45.2667 19.15 40.4C21.25 35.5333 24.1 31.3 27.7 27.7C31.3 24.1 35.5333 21.25 40.4 19.15C45.2667 17.05 50.4667 16 56 16C61.5333 16 66.7333 17.05 71.6 19.15C76.4667 21.25 80.7 24.1 84.3 27.7C87.9 31.3 90.75 35.5333 92.85 40.4C94.95 45.2667 96 50.4667 96 56C96 61.5333 94.95 66.7333 92.85 71.6C90.75 76.4667 87.9 80.7 84.3 84.3C80.7 87.9 76.4667 90.75 71.6 92.85C66.7333 94.95 61.5333 96 56 96V96M56 88C64.9333 88 72.5 84.9 78.7 78.7C84.9 72.5 88 64.9333 88 56C88 47.0667 84.9 39.5 78.7 33.3C72.5 27.1 64.9333 24 56 24C47.0667 24 39.5 27.1 33.3 33.3C27.1 39.5 24 47.0667 24 56C24 64.9333 27.1 72.5 33.3 78.7C39.5 84.9 47.0667 88 56 88V88M56 56V56V56V56V56V56V56V56V56V56" fill="var(--fill-0, #3B82F6)"/>
</g>
</svg>
