<svg preserveAspectRatio="none" width="100%" height="100%" overflow="visible" style="display: block;" viewBox="0 0 112.187 112.282" fill="none" xmlns="http://www.w3.org/2000/svg">
<g id="Container" opacity="0.1">
<path id="Icon" d="M30.4 47.9823L38.2 51.2823C39.1333 49.4156 40.1 47.6156 41.1 45.8823C42.1 44.1489 43.2 42.4156 44.4 40.6823L38.8 39.5823V39.5823V39.5823L30.4 47.9823V47.9823M44.6 56.2823L56 67.5823C58.8 66.5156 61.8 64.8823 65 62.6823C68.2 60.4823 71.2 57.9823 74 55.1823C78.6667 50.5156 82.3167 45.3323 84.95 39.6323C87.5833 33.9323 88.7333 28.6823 88.4 23.8823C83.6 23.5489 78.3333 24.6989 72.6 27.3323C66.8667 29.9656 61.6667 33.6156 57 38.2823C54.2 41.0823 51.7 44.0823 49.5 47.2823C47.3 50.4823 45.6667 53.4823 44.6 56.2823V56.2823M62.4 49.7823C60.8667 48.2489 60.1 46.3656 60.1 44.1323C60.1 41.8989 60.8667 40.0156 62.4 38.4823C63.9333 36.9489 65.8333 36.1823 68.1 36.1823C70.3667 36.1823 72.2667 36.9489 73.8 38.4823C75.3333 40.0156 76.1 41.8989 76.1 44.1323C76.1 46.3656 75.3333 48.2489 73.8 49.7823C72.2667 51.3156 70.3667 52.0823 68.1 52.0823C65.8333 52.0823 63.9333 51.3156 62.4 49.7823V49.7823M64.3 81.8823L72.7 73.4823V73.4823V73.4823L71.6 67.8823C69.8667 69.0823 68.1333 70.1656 66.4 71.1323C64.6667 72.0989 62.8667 73.0489 61 73.9823L64.3 81.8823V81.8823M95.6 16.5823C96.8667 24.6489 96.0833 32.4989 93.25 40.1323C90.4167 47.7656 85.5333 55.0489 78.6 61.9823V61.9823V61.9823L80.6 71.8823C80.8667 73.2156 80.8 74.5156 80.4 75.7823C80 77.0489 79.3333 78.1489 78.4 79.0823L61.6 95.8823L53.2 76.1823L36.1 59.0823L16.4 50.6823L33.1 33.8823C34.0333 32.9489 35.15 32.2823 36.45 31.8823C37.75 31.4823 39.0667 31.4156 40.4 31.6823L50.3 33.6823V33.6823V33.6823C57.2333 26.7489 64.5 21.8489 72.1 18.9823C79.7 16.1156 87.5333 15.3156 95.6 16.5823V16.5823M23.5 71.7823C25.8333 69.4489 28.6833 68.2656 32.05 68.2323C35.4167 68.1989 38.2667 69.3489 40.6 71.6823C42.9333 74.0156 44.0833 76.8656 44.05 80.2323C44.0167 83.5989 42.8333 86.4489 40.5 88.7823C38.8333 90.4489 36.05 91.8823 32.15 93.0823C28.25 94.2823 22.8667 95.3489 16 96.2823C16.9333 89.4156 18 84.0323 19.2 80.1323C20.4 76.2323 21.8333 73.4489 23.5 71.7823V71.7823M29.2 77.3823C28.5333 78.0489 27.8667 79.2656 27.2 81.0323C26.5333 82.7989 26.0667 84.5823 25.8 86.3823C27.6 86.1156 29.3833 85.6656 31.15 85.0323C32.9167 84.3989 34.1333 83.7489 34.8 83.0823C35.6 82.2823 36.0333 81.3156 36.1 80.1823C36.1667 79.0489 35.8 78.0823 35 77.2823C34.2 76.4823 33.2333 76.0989 32.1 76.1323C30.9667 76.1656 30 76.5823 29.2 77.3823V77.3823" fill="var(--fill-0, #3B82F6)"/>
</g>
</svg>
