<svg preserveAspectRatio="none" width="100%" height="100%" overflow="visible" style="display: block;" viewBox="0 0 96 112" fill="none" xmlns="http://www.w3.org/2000/svg">
<g id="Container" opacity="0.1">
<path id="Icon" d="M32 80H64V72H32V80V80M32 64H64V56H32V64V64M24 96C21.8 96 19.9167 95.2167 18.35 93.65C16.7833 92.0833 16 90.2 16 88V24C16 21.8 16.7833 19.9167 18.35 18.35C19.9167 16.7833 21.8 16 24 16H56L80 40V88C80 90.2 79.2167 92.0833 77.65 93.65C76.0833 95.2167 74.2 96 72 96H24V96M52 44V24H24V24V24V88V88V88H72V88V88V44H52V44M24 24V24V44V44V24V44V44V88V88V88V88V88V88V24V24V24V24" fill="var(--fill-0, #3B82F6)"/>
</g>
</svg>
