<svg preserveAspectRatio="none" width="100%" height="100%" overflow="visible" style="display: block;" viewBox="0 0 38 43" fill="none" xmlns="http://www.w3.org/2000/svg">
<g id="Overlay+Border">
<rect width="38" height="43" rx="16" fill="var(--fill-0, #3B82F6)" fill-opacity="0.1"/>
<rect x="0.5" y="0.5" width="37" height="42" rx="15.5" stroke="var(--stroke-0, #3B82F6)" stroke-opacity="0.2"/>
<path id="Icon" d="M17.6875 25.9375L24.75 18.875L22.9688 17.0938L17.6875 22.375L15.0625 19.75L13.2812 21.5312L17.6875 25.9375V25.9375M19 34C16.1042 33.2708 13.7135 31.6094 11.8281 29.0156C9.94271 26.4219 9 23.5417 9 20.375V12.75L19 9L29 12.75V20.375C29 23.5417 28.0573 26.4219 26.1719 29.0156C24.2865 31.6094 21.8958 33.2708 19 34V34M19 31.375C21.1667 30.6875 22.9583 29.3125 24.375 27.25C25.7917 25.1875 26.5 22.8958 26.5 20.375V14.4688L19 11.6562L11.5 14.4688V20.375C11.5 22.8958 12.2083 25.1875 13.625 27.25C15.0417 29.3125 16.8333 30.6875 19 31.375V31.375M19 21.5V21.5V21.5V21.5V21.5V21.5V21.5V21.5V21.5V21.5" fill="var(--fill-0, #3B82F6)"/>
</g>
</svg>
