<svg preserveAspectRatio="none" width="100%" height="100%" overflow="visible" style="display: block;" viewBox="0 0 32 36" fill="none" xmlns="http://www.w3.org/2000/svg">
<g id="Overlay">
<rect width="32" height="36" rx="16" fill="var(--fill-0, #1E3A8A)" fill-opacity="0.3"/>
<path id="Icon" d="M16 28C13.6833 27.4167 11.7708 26.0875 10.2625 24.0125C8.75417 21.9375 8 19.6333 8 17.1V11L16 8L24 11V17.1C24 18.5167 23.7583 19.8792 23.275 21.1875C22.7917 22.4958 22.1 23.65 21.2 24.65L18 21.45C17.7 21.6333 17.3792 21.7708 17.0375 21.8625C16.6958 21.9542 16.35 22 16 22C14.9 22 13.9583 21.6083 13.175 20.825C12.3917 20.0417 12 19.1 12 18C12 16.9 12.3917 15.9583 13.175 15.175C13.9583 14.3917 14.9 14 16 14C17.1 14 18.0417 14.3917 18.825 15.175C19.6083 15.9583 20 16.9 20 18C20 18.3667 19.9542 18.7208 19.8625 19.0625C19.7708 19.4042 19.6333 19.7333 19.45 20.05L20.95 21.55C21.2833 20.8667 21.5417 20.15 21.725 19.4C21.9083 18.65 22 17.8833 22 17.1V12.375L16 10.125L10 12.375V17.1C10 19.1167 10.5667 20.95 11.7 22.6C12.8333 24.25 14.2667 25.35 16 25.9C16.4333 25.7667 16.8458 25.5958 17.2375 25.3875C17.6292 25.1792 18.0167 24.9333 18.4 24.65L19.8 26.05C19.25 26.5 18.6542 26.8917 18.0125 27.225C17.3708 27.5583 16.7 27.8167 16 28V28M16 20C16.55 20 17.0208 19.8042 17.4125 19.4125C17.8042 19.0208 18 18.55 18 18C18 17.45 17.8042 16.9792 17.4125 16.5875C17.0208 16.1958 16.55 16 16 16C15.45 16 14.9792 16.1958 14.5875 16.5875C14.1958 16.9792 14 17.45 14 18C14 18.55 14.1958 19.0208 14.5875 19.4125C14.9792 19.8042 15.45 20 16 20V20M16.2 18.075V18.075V18.075V18.075V18.075V18.075V18.075V18.075V18.075V18.075V18.075V18.075V18.075V18.075V18.075V18.075V18.075" fill="var(--fill-0, #60A5FA)"/>
</g>
</svg>
